# xmcd CD database file
#
# Track frame offsets:
#	150
#	17705
#	32542
#	51929
#	68636
#	89185
#	111324
#	126807
#	144778
#	163760
#	188499
#	208267
#
# Disc length: 3075 seconds
#
# Revision: 0
# Processed by: cddbd v1.5.2PL0 Copyright (c) Steve Scherf et al.
# Submitted via: CDex 1.70beta2
#
DISCID=a70c010c
DTITLE=The Bliss - New beginning
DYEAR=1900
DGENRE=Jazz
TTITLE0=Relax, unwind
TTITLE1=No matter
TTITLE2=Looking for e sign
TTITLE3=Here it comes
TTITLE4=New begining
TTITLE5=Is this your life
TTITLE6=Together
TTITLE7=You did allright
TTITLE8=Trust is a must
TTITLE9=What can I say
TTITLE10=Change de vie
TTITLE11=Thinking of you
EXTD=
EXTT0=
EXTT1=
EXTT2=
EXTT3=
EXTT4=
EXTT5=
EXTT6=
EXTT7=
EXTT8=
EXTT9=
EXTT10=
EXTT11=
PLAYORDER=
